G04*
G04 #@! TF.GenerationSoftware,Altium Limited,Altium Designer,18.0.11 (651)*
G04*
G04 Layer_Color=16711935*
%FSLAX44Y44*%
%MOMM*%
G71*
G01*
G75*
%ADD21C,0.2540*%
D21*
X203413Y6350D02*
X205912Y6435D01*
X208399Y6691D01*
X210863Y7116D01*
X213292Y7708D01*
X215675Y8464D01*
X218001Y9381D01*
X220259Y10455D01*
X222439Y11681D01*
X224529Y13052D01*
X226522Y14563D01*
X228406Y16206D01*
X230174Y17974D01*
X231817Y19858D01*
X233328Y21851D01*
X234699Y23941D01*
X235925Y26121D01*
X236999Y28379D01*
X237916Y30705D01*
X238672Y33088D01*
X239264Y35517D01*
X239689Y37981D01*
X239945Y40468D01*
X240030Y42967D01*
X2540Y43180D02*
X2626Y40667D01*
X2883Y38165D01*
X3310Y35687D01*
X3906Y33243D01*
X4667Y30846D01*
X5589Y28507D01*
X6669Y26236D01*
X7902Y24044D01*
X9281Y21941D01*
X10800Y19937D01*
X12453Y18042D01*
X14231Y16263D01*
X16127Y14611D01*
X18131Y13091D01*
X20234Y11712D01*
X22426Y10479D01*
X24697Y9399D01*
X27036Y8476D01*
X29433Y7716D01*
X31877Y7120D01*
X34355Y6693D01*
X36857Y6436D01*
X39370Y6350D01*
X41464Y261620D02*
X38919Y261537D01*
X36384Y261287D01*
X33871Y260872D01*
X31390Y260294D01*
X28953Y259554D01*
X26569Y258657D01*
X24249Y257606D01*
X22002Y256405D01*
X19839Y255060D01*
X17769Y253576D01*
X15800Y251961D01*
X13941Y250219D01*
X12199Y248360D01*
X10584Y246391D01*
X9100Y244321D01*
X7755Y242158D01*
X6554Y239911D01*
X5503Y237591D01*
X4606Y235208D01*
X3866Y232770D01*
X3288Y230289D01*
X2873Y227776D01*
X2623Y225241D01*
X2540Y222696D01*
X240030Y222596D02*
X239946Y225148D01*
X239696Y227689D01*
X239280Y230209D01*
X238700Y232696D01*
X237959Y235140D01*
X237059Y237530D01*
X236005Y239856D01*
X234802Y242108D01*
X233453Y244276D01*
X231966Y246352D01*
X230346Y248326D01*
X228600Y250190D01*
X226736Y251936D01*
X224762Y253556D01*
X222686Y255043D01*
X220518Y256392D01*
X218266Y257596D01*
X215940Y258649D01*
X213549Y259549D01*
X211106Y260290D01*
X208619Y260870D01*
X206099Y261286D01*
X203558Y261536D01*
X201005Y261620D01*
X240030Y42967D02*
Y68580D01*
X39370Y6350D02*
X203413D01*
X2540Y43180D02*
Y222696D01*
X41464Y261620D02*
X59690D01*
X240030Y68580D02*
Y222596D01*
X59690Y261620D02*
X201005D01*
M02*
